<?xml version="1.0" encoding="UTF-8"?>
<!DOCTYPE svg PUBLIC "-//W3C//DTD SVG 1.1//EN" "http://www.w3.org/Graphics/SVG/1.1/DTD/svg11.dtd">
<!-- Creator: CorelDRAW 2017 -->
<svg xmlns="http://www.w3.org/2000/svg" xml:space="preserve" width="84.6666mm" height="44.8732mm" version="1.1" style="shape-rendering:geometricPrecision; text-rendering:geometricPrecision; image-rendering:optimizeQuality; fill-rule:evenodd; clip-rule:evenodd"
viewBox="0 0 8467 4487"
 xmlns:xlink="http://www.w3.org/1999/xlink">
 <defs>
  <style type="text/css">
   <![CDATA[
    .fil0 {fill:none}
    .fil1 {fill:#ffffff;fill-rule:nonzero}
   ]]>
  </style>
 </defs>
 <g id="Слой_x0020_1">
  <metadata id="CorelCorpID_0Corel-Layer"/>
  <polygon class="fil0" points="0,0 8467,0 8467,4487 0,4487 "/>
  <g id="_2316732423280">
   <path class="fil1" d="M5266 3266c106,0 197,-34 274,-101l0 0 0 0c8,-7 16,-14 24,-22 66,-66 106,-143 119,-232 3,-21 5,-43 5,-66 0,-117 -41,-215 -124,-297 -82,-83 -181,-124 -298,-124 -116,0 -215,41 -298,124 -82,82 -123,181 -123,297 0,116 41,215 123,298 82,82 181,123 298,123zm1844 -840c-300,-297 -3079,-2155 -3404,-1663 -181,248 620,1039 1087,1460 136,-106 293,-159 473,-159 216,0 400,76 553,229 153,153 229,337 229,553 0,97 -15,188 -46,272 362,223 705,396 998,509 655,281 1062,279 699,-494 726,939 -37,1065 -802,766 -308,-118 -667,-300 -1046,-533 -10,11 -21,22 -31,33 -153,153 -337,229 -553,229 -215,0 -400,-76 -552,-229 -153,-153 -229,-337 -229,-552 0,-150 37,-285 111,-404 -545,-480 -1455,-1396 -1123,-1850 506,-718 3207,1339 3638,1835z"/>
   <g>
    <path class="fil1" d="M874 1542l-58 0 0 -174 232 0 0 453 48 0 0 545c11,3 20,8 27,16 11,11 17,26 17,42 0,16 -7,31 -17,42 -11,11 -26,17 -42,17 -16,0 -31,-7 -42,-17 -11,-11 -17,-26 -17,-42 0,-16 7,-31 17,-42 7,-7 17,-13 27,-16l0 -516 -20 0c-4,72 -32,134 -84,187 -57,57 -125,85 -205,85 -80,0 -148,-28 -205,-85 -57,-57 -85,-125 -85,-205l174 0c0,32 11,59 34,82 23,23 50,34 82,34 32,0 59,-11 82,-34 23,-23 34,-50 34,-82l0 -290zm1480 -174l0 -117 783 0c3,-11 8,-20 16,-27 11,-11 26,-17 42,-17 16,0 31,7 42,17 11,11 17,26 17,42 0,16 -7,31 -17,42 -11,11 -26,17 -42,17 -16,0 -31,-7 -42,-17 -7,-7 -13,-17 -16,-27l-754 0 0 88 57 0 0 290 -174 0 0 -116 -232 0c-16,0 -30,6 -41,17 -11,11 -17,25 -17,41 0,16 6,30 17,41 11,11 25,17 41,17l58 0c64,0 119,23 164,68 45,45 68,100 68,164 0,64 -23,119 -68,164 -45,45 -100,68 -164,68l-290 0 0 -174 290 0c16,0 29,-6 41,-17 11,-11 17,-25 17,-41 0,-16 -6,-29 -17,-41 -11,-11 -25,-17 -41,-17l-58 0c-64,0 -119,-23 -164,-68 -45,-45 -68,-100 -68,-164 0,-64 23,-119 68,-164 45,-45 100,-68 164,-68l320 0zm841 -72c8,0 16,-3 21,-9 5,-5 9,-13 9,-21 0,-8 -3,-16 -9,-21 -5,-5 -13,-9 -21,-9 -8,0 -16,3 -21,9 -5,5 -9,13 -9,21 0,8 3,16 9,21 5,5 13,9 21,9zm-2113 1159c8,0 16,-3 21,-9 5,-5 9,-13 9,-21 0,-8 -3,-16 -9,-21 -5,-5 -13,-9 -21,-9 -8,0 -16,3 -21,9 -5,5 -9,13 -9,21 0,8 3,16 9,21 5,5 13,9 21,9zm82 -913l-58 0 0 -174 232 0 0 464c0,32 11,59 34,82 23,23 50,34 82,34 32,0 59,-11 82,-34 23,-23 34,-50 34,-82l0 -290 -58 0 0 -174 232 0 0 464c0,80 -28,148 -85,205 -57,57 -125,85 -205,85 -80,0 -148,-28 -205,-85 -57,-57 -85,-125 -85,-205l0 -290zm1508 0l-174 0 0 -174 435 0 174 174 -261 0 0 705 -174 -305 0 -400z"/>
    <path class="fil1" d="M3269 1780l-92 162 -70 0 162 -283 162 283 -202 0 0 -61 98 0 -57 -101zm202 23l0 139 -61 0 0 -286 162 162 0 -139 61 0 0 286 -162 -162z"/>
    <path class="fil1" d="M2440 2663l-545 963 -417 0 962 -1684 962 1684 -1202 0 0 -361 581 0 -340 -602zm1563 328l136 0 0 125 0 123 0 102c11,3 20,8 27,16 11,11 17,26 17,42 0,16 -7,31 -17,42 -11,11 -26,17 -42,17 -16,0 -31,-7 -42,-17 -11,-11 -17,-26 -17,-42 0,-16 7,-31 17,-42 7,-7 17,-13 27,-16l0 -102 0 -123 0 -96 -106 0 0 606 -361 0 0 -1202 -535 0 0 -361 893 0 364 361 -361 0 0 567zm142 387c-5,-5 -13,-9 -21,-9 -8,0 -16,3 -21,9 -5,5 -9,13 -9,21 0,8 3,16 9,21 5,5 13,9 21,9 8,0 16,-3 21,-9 5,-5 9,-13 9,-21 0,-8 -3,-16 -9,-21zm3465 -792l82 0 0 -297c-11,-3 -20,-8 -27,-16 -11,-11 -17,-26 -17,-42 0,-16 7,-31 17,-42 11,-11 26,-17 42,-17 16,0 31,7 42,17 11,11 17,26 17,42 0,16 -7,31 -17,42 -7,7 -17,13 -27,16l0 326 -111 0 0 1012 -361 0 0 -706 -361 361 -361 -361 0 401 -361 -213 0 -1061 721 721 721 -721 0 538zm97 -324c8,0 16,-3 21,-9 5,-5 9,-13 9,-21 0,-8 -3,-16 -9,-21 -5,-5 -13,-9 -21,-9 -8,0 -16,3 -21,9 -5,5 -9,13 -9,21 0,8 3,16 9,21 5,5 13,9 21,9z"/>
   </g>
  </g>
 </g>
</svg>
